 http://www.shotpix.com/images/08170901817074153158.jpg

General
Name                     	         : Dil Ne Dil Se Tujhe Pukara - Janasheen.avi
Format                                   : AVI
Format/Info                              : Audio Video Interleave
File size                                : 202 MiB
Duration                                 : 6mn 16s
Overall bit rate                         : 4 492 Kbps

Video
ID                                       : 0
Format                                   : AVC
Format/Info                              : Advanced Video Codec
Format profile                           : Main@L5.1
Format settings, CABAC                   : Yes
Format settings, ReFrames                : 2 frames
Codec ID                                 : H264
Duration                                 : 6mn 16s
Bit rate                                 : 4 228 Kbps
Width                                    : 1 920 pixels
Height                                   : 1 080 pixels
Display aspect ratio                     : 16:9
Frame rate                               : 25.000 fps
Color space                              : YUV
Chroma subsampling                       : 4:2:0
Bit depth                                : 8 bits
Scan type                                : Progressive
Bits/(Pixel*Frame)                       : 0.082
Stream size                              : 190 MiB (94%)

Audio
ID                                       : 1
Format                                   : MPEG Audio
Format version                           : Version 1
Format profile                           : Layer 3
Codec ID                                 : 55
Codec ID/Hint                            : MP3
Duration                                 : 6mn 16s
Bit rate mode                            : Constant
Bit rate                                 : 256 Kbps
Channel(s)                               : 2 channels
Sampling rate                            : 44.1 KHz
Compression mode                         : Lossy
Stream size                              : 11.5 MiB (6%)
Alignment                                : Split accross interleaves
Interleave, duration                     : 40 ms (1.00 video frame)
Interleave, preload duration             : 129 ms
 
http://www.shotpix.com/images/28486342601007912088.gif
